<?xml version="1.0" encoding="UTF-8"?>
<!DOCTYPE svg
  PUBLIC '-//W3C//DTD SVG 1.1//EN'
  'http://www.w3.org/Graphics/SVG/1.1/DTD/svg11.dtd'>
<svg height="23.000mm" version="1.1" width="60.000mm" xmlns="http://www.w3.org/2000/svg">
    <!--Autogenerated with python-barcode 0.10.0-->
    <g id="barcode_group">
        <rect height="100%" style="fill:white" width="100%"/>
        <rect height="15.000mm" style="fill:black;" width="0.400mm" x="2.540mm" y="1.000mm"/>
        <rect height="15.000mm" style="fill:white;" width="0.200mm" x="2.940mm" y="1.000mm"/>
        <rect height="15.000mm" style="fill:black;" width="0.200mm" x="3.140mm" y="1.000mm"/>
        <rect height="15.000mm" style="fill:white;" width="0.400mm" x="3.340mm" y="1.000mm"/>
        <rect height="15.000mm" style="fill:black;" width="0.200mm" x="3.740mm" y="1.000mm"/>
        <rect height="15.000mm" style="fill:white;" width="0.800mm" x="3.940mm" y="1.000mm"/>
        <rect height="15.000mm" style="fill:black;" width="0.200mm" x="4.740mm" y="1.000mm"/>
        <rect height="15.000mm" style="fill:white;" width="0.400mm" x="4.940mm" y="1.000mm"/>
        <rect height="15.000mm" style="fill:black;" width="0.400mm" x="5.340mm" y="1.000mm"/>
        <rect height="15.000mm" style="fill:white;" width="0.800mm" x="5.740mm" y="1.000mm"/>
        <rect height="15.000mm" style="fill:black;" width="0.200mm" x="6.540mm" y="1.000mm"/>
        <rect height="15.000mm" style="fill:white;" width="0.200mm" x="6.740mm" y="1.000mm"/>
        <rect height="15.000mm" style="fill:black;" width="0.200mm" x="6.940mm" y="1.000mm"/>
        <rect height="15.000mm" style="fill:white;" width="0.400mm" x="7.140mm" y="1.000mm"/>
        <rect height="15.000mm" style="fill:black;" width="0.800mm" x="7.540mm" y="1.000mm"/>
        <rect height="15.000mm" style="fill:white;" width="0.200mm" x="8.340mm" y="1.000mm"/>
        <rect height="15.000mm" style="fill:black;" width="0.200mm" x="8.540mm" y="1.000mm"/>
        <rect height="15.000mm" style="fill:white;" width="0.400mm" x="8.740mm" y="1.000mm"/>
        <rect height="15.000mm" style="fill:black;" width="0.200mm" x="9.140mm" y="1.000mm"/>
        <rect height="15.000mm" style="fill:white;" width="0.400mm" x="9.340mm" y="1.000mm"/>
        <rect height="15.000mm" style="fill:black;" width="0.800mm" x="9.740mm" y="1.000mm"/>
        <rect height="15.000mm" style="fill:white;" width="0.200mm" x="10.540mm" y="1.000mm"/>
        <rect height="15.000mm" style="fill:black;" width="0.200mm" x="10.740mm" y="1.000mm"/>
        <rect height="15.000mm" style="fill:white;" width="0.400mm" x="10.940mm" y="1.000mm"/>
        <rect height="15.000mm" style="fill:black;" width="0.200mm" x="11.340mm" y="1.000mm"/>
        <rect height="15.000mm" style="fill:white;" width="0.200mm" x="11.540mm" y="1.000mm"/>
        <rect height="15.000mm" style="fill:black;" width="0.200mm" x="11.740mm" y="1.000mm"/>
        <rect height="15.000mm" style="fill:white;" width="0.400mm" x="11.940mm" y="1.000mm"/>
        <rect height="15.000mm" style="fill:black;" width="0.800mm" x="12.340mm" y="1.000mm"/>
        <rect height="15.000mm" style="fill:white;" width="0.400mm" x="13.140mm" y="1.000mm"/>
        <rect height="15.000mm" style="fill:black;" width="0.200mm" x="13.540mm" y="1.000mm"/>
        <rect height="15.000mm" style="fill:white;" width="0.200mm" x="13.740mm" y="1.000mm"/>
        <rect height="15.000mm" style="fill:black;" width="0.800mm" x="13.940mm" y="1.000mm"/>
        <rect height="15.000mm" style="fill:white;" width="0.400mm" x="14.740mm" y="1.000mm"/>
        <rect height="15.000mm" style="fill:black;" width="0.200mm" x="15.140mm" y="1.000mm"/>
        <rect height="15.000mm" style="fill:white;" width="0.400mm" x="15.340mm" y="1.000mm"/>
        <rect height="15.000mm" style="fill:black;" width="0.600mm" x="15.740mm" y="1.000mm"/>
        <rect height="15.000mm" style="fill:white;" width="0.400mm" x="16.340mm" y="1.000mm"/>
        <rect height="15.000mm" style="fill:black;" width="0.200mm" x="16.740mm" y="1.000mm"/>
        <rect height="15.000mm" style="fill:white;" width="0.400mm" x="16.940mm" y="1.000mm"/>
        <rect height="15.000mm" style="fill:black;" width="0.400mm" x="17.340mm" y="1.000mm"/>
        <rect height="15.000mm" style="fill:white;" width="0.200mm" x="17.740mm" y="1.000mm"/>
        <rect height="15.000mm" style="fill:black;" width="0.200mm" x="17.940mm" y="1.000mm"/>
        <rect height="15.000mm" style="fill:white;" width="0.200mm" x="18.140mm" y="1.000mm"/>
        <rect height="15.000mm" style="fill:black;" width="0.600mm" x="18.340mm" y="1.000mm"/>
        <rect height="15.000mm" style="fill:white;" width="0.400mm" x="18.940mm" y="1.000mm"/>
        <rect height="15.000mm" style="fill:black;" width="0.400mm" x="19.340mm" y="1.000mm"/>
        <rect height="15.000mm" style="fill:white;" width="0.400mm" x="19.740mm" y="1.000mm"/>
        <rect height="15.000mm" style="fill:black;" width="0.200mm" x="20.140mm" y="1.000mm"/>
        <rect height="15.000mm" style="fill:white;" width="0.200mm" x="20.340mm" y="1.000mm"/>
        <rect height="15.000mm" style="fill:black;" width="0.600mm" x="20.540mm" y="1.000mm"/>
        <rect height="15.000mm" style="fill:white;" width="0.400mm" x="21.140mm" y="1.000mm"/>
        <rect height="15.000mm" style="fill:black;" width="0.400mm" x="21.540mm" y="1.000mm"/>
        <rect height="15.000mm" style="fill:white;" width="0.400mm" x="21.940mm" y="1.000mm"/>
        <rect height="15.000mm" style="fill:black;" width="0.800mm" x="22.340mm" y="1.000mm"/>
        <rect height="15.000mm" style="fill:white;" width="0.400mm" x="23.140mm" y="1.000mm"/>
        <rect height="15.000mm" style="fill:black;" width="0.200mm" x="23.540mm" y="1.000mm"/>
        <rect height="15.000mm" style="fill:white;" width="0.200mm" x="23.740mm" y="1.000mm"/>
        <rect height="15.000mm" style="fill:black;" width="0.200mm" x="23.940mm" y="1.000mm"/>
        <rect height="15.000mm" style="fill:white;" width="0.400mm" x="24.140mm" y="1.000mm"/>
        <rect height="15.000mm" style="fill:black;" width="0.800mm" x="24.540mm" y="1.000mm"/>
        <rect height="15.000mm" style="fill:white;" width="0.400mm" x="25.340mm" y="1.000mm"/>
        <rect height="15.000mm" style="fill:black;" width="0.200mm" x="25.740mm" y="1.000mm"/>
        <rect height="15.000mm" style="fill:white;" width="0.200mm" x="25.940mm" y="1.000mm"/>
        <rect height="15.000mm" style="fill:black;" width="0.200mm" x="26.140mm" y="1.000mm"/>
        <rect height="15.000mm" style="fill:white;" width="0.400mm" x="26.340mm" y="1.000mm"/>
        <rect height="15.000mm" style="fill:black;" width="0.800mm" x="26.740mm" y="1.000mm"/>
        <rect height="15.000mm" style="fill:white;" width="0.400mm" x="27.540mm" y="1.000mm"/>
        <rect height="15.000mm" style="fill:black;" width="0.200mm" x="27.940mm" y="1.000mm"/>
        <rect height="15.000mm" style="fill:white;" width="0.200mm" x="28.140mm" y="1.000mm"/>
        <rect height="15.000mm" style="fill:black;" width="0.200mm" x="28.340mm" y="1.000mm"/>
        <rect height="15.000mm" style="fill:white;" width="0.400mm" x="28.540mm" y="1.000mm"/>
        <rect height="15.000mm" style="fill:black;" width="0.200mm" x="28.940mm" y="1.000mm"/>
        <rect height="15.000mm" style="fill:white;" width="0.400mm" x="29.140mm" y="1.000mm"/>
        <rect height="15.000mm" style="fill:black;" width="0.400mm" x="29.540mm" y="1.000mm"/>
        <rect height="15.000mm" style="fill:white;" width="0.400mm" x="29.940mm" y="1.000mm"/>
        <rect height="15.000mm" style="fill:black;" width="0.600mm" x="30.340mm" y="1.000mm"/>
        <rect height="15.000mm" style="fill:white;" width="0.200mm" x="30.940mm" y="1.000mm"/>
        <rect height="15.000mm" style="fill:black;" width="0.200mm" x="31.140mm" y="1.000mm"/>
        <rect height="15.000mm" style="fill:white;" width="0.400mm" x="31.340mm" y="1.000mm"/>
        <rect height="15.000mm" style="fill:black;" width="0.400mm" x="31.740mm" y="1.000mm"/>
        <rect height="15.000mm" style="fill:white;" width="0.200mm" x="32.140mm" y="1.000mm"/>
        <rect height="15.000mm" style="fill:black;" width="0.200mm" x="32.340mm" y="1.000mm"/>
        <rect height="15.000mm" style="fill:white;" width="0.800mm" x="32.540mm" y="1.000mm"/>
        <rect height="15.000mm" style="fill:black;" width="0.200mm" x="33.340mm" y="1.000mm"/>
        <rect height="15.000mm" style="fill:white;" width="0.600mm" x="33.540mm" y="1.000mm"/>
        <rect height="15.000mm" style="fill:black;" width="0.800mm" x="34.140mm" y="1.000mm"/>
        <rect height="15.000mm" style="fill:white;" width="0.200mm" x="34.940mm" y="1.000mm"/>
        <rect height="15.000mm" style="fill:black;" width="0.200mm" x="35.140mm" y="1.000mm"/>
        <rect height="15.000mm" style="fill:white;" width="0.200mm" x="35.340mm" y="1.000mm"/>
        <rect height="15.000mm" style="fill:black;" width="0.200mm" x="35.540mm" y="1.000mm"/>
        <rect height="15.000mm" style="fill:white;" width="0.600mm" x="35.740mm" y="1.000mm"/>
        <rect height="15.000mm" style="fill:black;" width="0.800mm" x="36.340mm" y="1.000mm"/>
        <rect height="15.000mm" style="fill:white;" width="0.200mm" x="37.140mm" y="1.000mm"/>
        <rect height="15.000mm" style="fill:black;" width="0.200mm" x="37.340mm" y="1.000mm"/>
        <rect height="15.000mm" style="fill:white;" width="0.200mm" x="37.540mm" y="1.000mm"/>
        <rect height="15.000mm" style="fill:black;" width="0.200mm" x="37.740mm" y="1.000mm"/>
        <rect height="15.000mm" style="fill:white;" width="0.400mm" x="37.940mm" y="1.000mm"/>
        <rect height="15.000mm" style="fill:black;" width="0.400mm" x="38.340mm" y="1.000mm"/>
        <rect height="15.000mm" style="fill:white;" width="0.200mm" x="38.740mm" y="1.000mm"/>
        <rect height="15.000mm" style="fill:black;" width="0.200mm" x="38.940mm" y="1.000mm"/>
        <rect height="15.000mm" style="fill:white;" width="0.800mm" x="39.140mm" y="1.000mm"/>
        <rect height="15.000mm" style="fill:black;" width="0.400mm" x="39.940mm" y="1.000mm"/>
        <rect height="15.000mm" style="fill:white;" width="0.400mm" x="40.340mm" y="1.000mm"/>
        <rect height="15.000mm" style="fill:black;" width="0.200mm" x="40.740mm" y="1.000mm"/>
        <rect height="15.000mm" style="fill:white;" width="0.200mm" x="40.940mm" y="1.000mm"/>
        <rect height="15.000mm" style="fill:black;" width="0.200mm" x="41.140mm" y="1.000mm"/>
        <rect height="15.000mm" style="fill:white;" width="0.800mm" x="41.340mm" y="1.000mm"/>
        <rect height="15.000mm" style="fill:black;" width="0.200mm" x="42.140mm" y="1.000mm"/>
        <rect height="15.000mm" style="fill:white;" width="0.200mm" x="42.340mm" y="1.000mm"/>
        <rect height="15.000mm" style="fill:black;" width="0.400mm" x="42.540mm" y="1.000mm"/>
        <rect height="15.000mm" style="fill:white;" width="0.400mm" x="42.940mm" y="1.000mm"/>
        <rect height="15.000mm" style="fill:black;" width="0.200mm" x="43.340mm" y="1.000mm"/>
        <rect height="15.000mm" style="fill:white;" width="0.800mm" x="43.540mm" y="1.000mm"/>
        <rect height="15.000mm" style="fill:black;" width="0.200mm" x="44.340mm" y="1.000mm"/>
        <rect height="15.000mm" style="fill:white;" width="0.400mm" x="44.540mm" y="1.000mm"/>
        <rect height="15.000mm" style="fill:black;" width="0.400mm" x="44.940mm" y="1.000mm"/>
        <rect height="15.000mm" style="fill:white;" width="0.400mm" x="45.340mm" y="1.000mm"/>
        <rect height="15.000mm" style="fill:black;" width="0.600mm" x="45.740mm" y="1.000mm"/>
        <rect height="15.000mm" style="fill:white;" width="0.200mm" x="46.340mm" y="1.000mm"/>
        <rect height="15.000mm" style="fill:black;" width="0.200mm" x="46.540mm" y="1.000mm"/>
        <rect height="15.000mm" style="fill:white;" width="0.800mm" x="46.740mm" y="1.000mm"/>
        <rect height="15.000mm" style="fill:black;" width="0.200mm" x="47.540mm" y="1.000mm"/>
        <rect height="15.000mm" style="fill:white;" width="0.200mm" x="47.740mm" y="1.000mm"/>
        <rect height="15.000mm" style="fill:black;" width="0.400mm" x="47.940mm" y="1.000mm"/>
        <rect height="15.000mm" style="fill:white;" width="0.400mm" x="48.340mm" y="1.000mm"/>
        <rect height="15.000mm" style="fill:black;" width="0.200mm" x="48.740mm" y="1.000mm"/>
        <rect height="15.000mm" style="fill:white;" width="0.600mm" x="48.940mm" y="1.000mm"/>
        <rect height="15.000mm" style="fill:black;" width="0.800mm" x="49.540mm" y="1.000mm"/>
        <rect height="15.000mm" style="fill:white;" width="0.200mm" x="50.340mm" y="1.000mm"/>
        <rect height="15.000mm" style="fill:black;" width="0.200mm" x="50.540mm" y="1.000mm"/>
        <rect height="15.000mm" style="fill:white;" width="0.200mm" x="50.740mm" y="1.000mm"/>
        <rect height="15.000mm" style="fill:black;" width="0.800mm" x="50.940mm" y="1.000mm"/>
        <rect height="15.000mm" style="fill:white;" width="0.200mm" x="51.740mm" y="1.000mm"/>
        <rect height="15.000mm" style="fill:black;" width="0.600mm" x="51.940mm" y="1.000mm"/>
        <rect height="15.000mm" style="fill:white;" width="0.200mm" x="52.540mm" y="1.000mm"/>
        <rect height="15.000mm" style="fill:black;" width="0.200mm" x="52.740mm" y="1.000mm"/>
        <rect height="15.000mm" style="fill:white;" width="0.200mm" x="52.940mm" y="1.000mm"/>
        <rect height="15.000mm" style="fill:black;" width="0.600mm" x="53.140mm" y="1.000mm"/>
        <rect height="15.000mm" style="fill:white;" width="0.600mm" x="53.740mm" y="1.000mm"/>
        <rect height="15.000mm" style="fill:black;" width="0.400mm" x="54.340mm" y="1.000mm"/>
        <rect height="15.000mm" style="fill:white;" width="0.200mm" x="54.740mm" y="1.000mm"/>
        <rect height="15.000mm" style="fill:black;" width="0.200mm" x="54.940mm" y="1.000mm"/>
        <rect height="15.000mm" style="fill:white;" width="0.200mm" x="55.140mm" y="1.000mm"/>
        <rect height="15.000mm" style="fill:black;" width="0.400mm" x="55.340mm" y="1.000mm"/>
        <rect height="15.000mm" style="fill:white;" width="0.600mm" x="55.740mm" y="1.000mm"/>
        <rect height="15.000mm" style="fill:black;" width="0.600mm" x="56.340mm" y="1.000mm"/>
        <rect height="15.000mm" style="fill:white;" width="0.200mm" x="56.940mm" y="1.000mm"/>
        <rect height="15.000mm" style="fill:black;" width="0.200mm" x="57.140mm" y="1.000mm"/>
        <rect height="15.000mm" style="fill:white;" width="0.200mm" x="57.340mm" y="1.000mm"/>
        <rect height="15.000mm" style="fill:black;" width="0.400mm" x="57.540mm" y="1.000mm"/>
        <text style="fill:black;font-size:10pt;text-anchor:middle;" x="30.240mm" y="21.000mm">https://www.google.com</text>
    </g>
</svg>
